<svg width="256" height="256" viewBox="0 0 256 256" fill="none" xmlns="http://www.w3.org/2000/svg">
<rect width="256" height="256" fill="#01877E"/>
<rect x="67.1992" y="76.8027" width="38.4024" height="38.4024" rx="9.63647" fill="white" fill-opacity="0.8"/>
<rect x="67.1934" y="140.793" width="38.4024" height="38.4024" rx="9.63647" fill="white"/>
<path d="M108.795 150.429C108.795 145.107 113.109 140.793 118.431 140.793H142.188C144.955 140.793 147.197 143.036 147.197 145.802V145.802C147.197 164.245 132.247 179.195 113.804 179.195V179.195C111.038 179.195 108.795 176.953 108.795 174.186V150.429Z" fill="white"/>
<rect x="67.1934" y="182.395" width="38.4024" height="38.4024" rx="9.63647" fill="white" fill-opacity="0.8"/>
<path d="M108.795 187.404C108.795 184.637 111.038 182.395 113.804 182.395V182.395C132.247 182.395 147.197 197.345 147.197 215.788V215.788C147.197 218.554 144.955 220.797 142.188 220.797H118.431C113.109 220.797 108.795 216.482 108.795 211.16V187.404Z" fill="white"/>
<path d="M156.795 159.994C156.795 149.39 165.392 140.793 175.996 140.793H190.188C192.955 140.793 195.197 143.036 195.197 145.802V174.186C195.197 176.953 192.955 179.195 190.188 179.195H175.996C165.392 179.195 156.795 170.599 156.795 159.994V159.994Z" fill="white"/>
<path d="M198.396 145.802C198.396 143.036 200.639 140.793 203.405 140.793V140.793C221.848 140.793 236.799 155.744 236.799 174.186V174.186C236.799 176.953 234.556 179.195 231.79 179.195H208.033C202.711 179.195 198.396 174.881 198.396 169.559V145.802Z" fill="white" fill-opacity="0.8"/>
<path d="M156.795 187.404C156.795 184.637 159.038 182.395 161.804 182.395H185.561C190.883 182.395 195.197 186.709 195.197 192.031V215.788C195.197 218.554 192.955 220.797 190.188 220.797V220.797C171.746 220.797 156.795 205.846 156.795 187.404V187.404Z" fill="white" fill-opacity="0.2"/>
<path d="M198.396 187.404C198.396 184.637 200.639 182.395 203.405 182.395V182.395C221.848 182.395 236.799 197.345 236.799 215.788V215.788C236.799 218.554 234.556 220.797 231.79 220.797H208.033C202.711 220.797 198.396 216.482 198.396 211.16V187.404Z" fill="white"/>
<path d="M19.1953 174.186C19.1953 155.744 34.146 140.793 52.5887 140.793V140.793C55.3551 140.793 57.5977 143.036 57.5977 145.802V169.559C57.5977 174.881 53.2833 179.195 47.9612 179.195H24.2043C21.4379 179.195 19.1953 176.953 19.1953 174.186V174.186Z" fill="white"/>
<path d="M19.1953 187.404C19.1953 184.637 21.4379 182.395 24.2043 182.395H47.9612C53.2833 182.395 57.5977 186.709 57.5977 192.031V215.788C57.5977 218.554 55.3551 220.797 52.5887 220.797V220.797C34.146 220.797 19.1953 205.846 19.1953 187.404V187.404Z" fill="white"/>
<rect x="67.1934" y="35.1973" width="38.4024" height="38.4024" rx="9.63647" fill="white"/>
<rect x="108.795" y="76.7988" width="38.4024" height="38.4024" rx="9.63647" fill="white"/>
<path d="M156.795 68.5906C156.795 50.148 171.746 35.1973 190.188 35.1973V35.1973C192.955 35.1973 195.197 37.4399 195.197 40.2063V63.9631C195.197 69.2852 190.883 73.5996 185.561 73.5996H161.804C159.038 73.5996 156.795 71.357 156.795 68.5906V68.5906Z" fill="white"/>
<path d="M198.396 40.2063C198.396 37.4399 200.639 35.1973 203.405 35.1973V35.1973C221.848 35.1973 236.799 50.148 236.799 68.5906V68.5906C236.799 71.357 234.556 73.5996 231.79 73.5996H208.033C202.711 73.5996 198.396 69.2852 198.396 63.9631V40.2063Z" fill="white" fill-opacity="0.8"/>
<path d="M156.795 81.8078C156.795 79.0414 159.038 76.7988 161.804 76.7988H185.561C190.883 76.7988 195.197 81.1132 195.197 86.4353V110.192C195.197 112.959 192.955 115.201 190.188 115.201V115.201C171.746 115.201 156.795 100.25 156.795 81.8078V81.8078Z" fill="white"/>
<path d="M198.396 86.4353C198.396 81.1132 202.711 76.7988 208.033 76.7988H231.79C234.556 76.7988 236.799 79.0414 236.799 81.8078V81.8078C236.799 100.25 221.848 115.201 203.405 115.201V115.201C200.639 115.201 198.396 112.959 198.396 110.192V86.4353Z" fill="white"/>
<path d="M19.1953 41.2608C19.1953 37.912 21.91 35.1973 25.2588 35.1973H38.3965C49.001 35.1973 57.5977 43.7939 57.5977 54.3984V54.3984C57.5977 65.003 49.001 73.5996 38.3965 73.5996H25.2588C21.91 73.5996 19.1953 70.8849 19.1953 67.5361V41.2608Z" fill="white"/>
<path d="M19.1953 81.8078C19.1953 79.0414 21.4379 76.7988 24.2043 76.7988H38.3965C49.001 76.7988 57.5977 85.3955 57.5977 96V96C57.5977 106.605 49.001 115.201 38.3965 115.201H24.2043C21.4379 115.201 19.1953 112.959 19.1953 110.192V81.8078Z" fill="white" fill-opacity="0.8"/>
</svg>
