<svg width="3894" height="500" viewBox="0 0 3894 500" fill="none" xmlns="http://www.w3.org/2000/svg">
<path d="M777.006 452.996C754.673 452.996 735.006 448.329 718.006 438.996C701.006 429.329 687.673 415.329 678.006 396.996C668.339 378.663 663.006 356.496 662.006 330.496H672.506V443.996H617.506V78.9961H687.006V261.496L668.506 289.996C669.839 261.996 675.339 238.663 685.006 219.996C695.006 201.329 708.339 187.329 725.006 177.996C741.673 168.663 760.506 163.996 781.506 163.996C800.173 163.996 817.173 167.496 832.506 174.496C847.839 181.496 861.006 191.329 872.006 203.996C883.006 216.329 891.339 230.829 897.006 247.496C903.006 264.163 906.006 282.329 906.006 301.996V312.496C906.006 332.163 903.006 350.496 897.006 367.496C891.006 384.496 882.339 399.496 871.006 412.496C859.673 425.163 846.006 435.163 830.006 442.496C814.339 449.496 796.673 452.996 777.006 452.996ZM761.506 394.496C776.506 394.496 789.506 390.829 800.506 383.496C811.839 375.829 820.673 365.496 827.006 352.496C833.339 339.496 836.506 324.496 836.506 307.496C836.506 290.163 833.339 275.163 827.006 262.496C820.673 249.829 811.839 239.996 800.506 232.996C789.506 225.996 776.506 222.496 761.506 222.496C747.839 222.496 735.173 225.496 723.506 231.496C712.173 237.496 702.839 246.329 695.506 257.996C688.506 269.663 685.006 283.663 685.006 299.996V319.996C685.006 335.663 688.673 348.996 696.006 359.996C703.339 370.996 712.839 379.496 724.506 385.496C736.173 391.496 748.506 394.496 761.506 394.496Z" fill="#007A9F"/>
<path d="M950.615 443.996V78.9961H1020.12V443.996H950.615ZM916.615 130.996V78.9961H1020.12V130.996H916.615Z" fill="#007A9F"/>
<path d="M1209.96 453.496C1185.96 453.496 1164.79 449.663 1146.46 441.996C1128.13 434.329 1112.63 423.996 1099.96 410.996C1087.29 397.663 1077.63 382.663 1070.96 365.996C1064.63 349.329 1061.46 331.996 1061.46 313.996V303.496C1061.46 284.829 1064.79 267.163 1071.46 250.496C1078.46 233.496 1088.29 218.496 1100.96 205.496C1113.96 192.163 1129.63 181.829 1147.96 174.496C1166.29 166.829 1186.96 162.996 1209.96 162.996C1232.96 162.996 1253.63 166.829 1271.96 174.496C1290.29 181.829 1305.79 192.163 1318.46 205.496C1331.46 218.496 1341.29 233.496 1347.96 250.496C1354.63 267.163 1357.96 284.829 1357.96 303.496V313.996C1357.96 331.996 1354.63 349.329 1347.96 365.996C1341.63 382.663 1332.13 397.663 1319.46 410.996C1306.79 423.996 1291.29 434.329 1272.96 441.996C1254.63 449.663 1233.63 453.496 1209.96 453.496ZM1209.96 393.996C1226.96 393.996 1241.29 390.329 1252.96 382.996C1264.63 375.329 1273.46 365.163 1279.46 352.496C1285.46 339.496 1288.46 324.829 1288.46 308.496C1288.46 291.829 1285.29 277.163 1278.96 264.496C1272.96 251.496 1263.96 241.329 1251.96 233.996C1240.29 226.329 1226.29 222.496 1209.96 222.496C1193.63 222.496 1179.46 226.329 1167.46 233.996C1155.79 241.329 1146.79 251.496 1140.46 264.496C1134.13 277.163 1130.96 291.829 1130.96 308.496C1130.96 324.829 1133.96 339.496 1139.96 352.496C1146.29 365.163 1155.29 375.329 1166.96 382.996C1178.63 390.329 1192.96 393.996 1209.96 393.996Z" fill="#007A9F"/>
<path d="M1519.31 453.496C1495.65 453.496 1475.15 449.496 1457.81 441.496C1440.81 433.496 1426.48 422.829 1414.81 409.496C1403.48 396.163 1394.98 381.163 1389.31 364.496C1383.65 347.829 1380.81 330.829 1380.81 313.496V303.996C1380.81 285.663 1383.65 268.163 1389.31 251.496C1395.31 234.496 1404.15 219.496 1415.81 206.496C1427.48 193.163 1441.81 182.663 1458.81 174.996C1476.15 166.996 1496.15 162.996 1518.81 162.996C1542.48 162.996 1563.65 167.663 1582.31 176.996C1600.98 185.996 1615.81 198.663 1626.81 214.996C1638.15 231.329 1644.48 250.329 1645.81 271.996H1578.31C1576.65 257.996 1570.65 246.329 1560.31 236.996C1550.31 227.663 1536.48 222.996 1518.81 222.996C1503.48 222.996 1490.65 226.663 1480.31 233.996C1470.31 241.329 1462.81 251.496 1457.81 264.496C1452.81 277.163 1450.31 291.829 1450.31 308.496C1450.31 324.496 1452.65 338.996 1457.31 351.996C1462.31 364.996 1469.81 375.163 1479.81 382.496C1490.15 389.829 1503.31 393.496 1519.31 393.496C1531.31 393.496 1541.65 391.329 1550.31 386.996C1558.98 382.663 1565.81 376.663 1570.81 368.996C1576.15 361.329 1579.48 352.663 1580.81 342.996H1648.31C1646.98 364.996 1640.48 384.329 1628.81 400.996C1617.48 417.329 1602.31 430.163 1583.31 439.496C1564.65 448.829 1543.31 453.496 1519.31 453.496Z" fill="#007A9F"/>
<path d="M1873.99 443.996L1782.99 316.996H1742.49L1857.99 172.496H1930.49L1823.99 305.996L1825.49 270.996L1952.49 443.996H1873.99ZM1683.99 443.996V78.9961H1753.49V443.996H1683.99Z" fill="#007A9F"/>
<path d="M2064.74 452.496C2027.4 452.496 1998.07 444.663 1976.74 428.996C1955.74 412.996 1944.74 390.996 1943.74 362.996H2006.24C2007.24 372.329 2012.4 380.829 2021.74 388.496C2031.07 396.163 2045.74 399.996 2065.74 399.996C2082.4 399.996 2095.57 396.996 2105.24 390.996C2115.24 384.996 2120.24 376.829 2120.24 366.496C2120.24 357.496 2116.4 350.329 2108.74 344.996C2101.4 339.663 2088.74 336.163 2070.74 334.496L2046.74 331.996C2016.4 328.663 1993.07 319.996 1976.74 305.996C1960.4 291.996 1952.24 273.329 1952.24 249.996C1952.24 231.329 1956.9 215.663 1966.24 202.996C1975.57 190.329 1988.4 180.829 2004.74 174.496C2021.4 167.829 2040.4 164.496 2061.74 164.496C2095.07 164.496 2122.07 171.829 2142.74 186.496C2163.4 201.163 2174.24 222.663 2175.24 250.996H2112.74C2112.07 241.663 2107.4 233.663 2098.74 226.996C2090.07 220.329 2077.57 216.996 2061.24 216.996C2046.57 216.996 2035.24 219.829 2027.24 225.496C2019.24 231.163 2015.24 238.496 2015.24 247.496C2015.24 256.163 2018.4 262.829 2024.74 267.496C2031.4 272.163 2042.07 275.329 2056.74 276.996L2080.74 279.496C2112.74 282.829 2137.74 291.663 2155.74 305.996C2174.07 320.329 2183.24 339.663 2183.24 363.996C2183.24 381.996 2178.24 397.663 2168.24 410.996C2158.57 423.996 2144.9 434.163 2127.24 441.496C2109.57 448.829 2088.74 452.496 2064.74 452.496Z" fill="#007A9F"/>
<path d="M2338.65 447.496C2313.65 447.496 2292.98 444.329 2276.65 437.996C2260.65 431.329 2248.65 420.329 2240.65 404.996C2232.65 389.329 2228.65 368.329 2228.65 341.996L2229.15 95.9961H2294.15L2293.65 346.496C2293.65 359.829 2297.15 370.163 2304.15 377.496C2311.48 384.496 2321.82 387.996 2335.15 387.996H2377.65V447.496H2338.65ZM2185.65 223.496V172.496H2377.65V223.496H2185.65Z" fill="#11C498"/>
<path d="M2415.98 443.996V172.496H2470.98V287.496H2469.48C2469.48 248.496 2477.82 218.996 2494.48 198.996C2511.15 178.996 2535.65 168.996 2567.98 168.996H2577.98V229.496H2558.98C2535.65 229.496 2517.48 235.829 2504.48 248.496C2491.82 260.829 2485.48 278.829 2485.48 302.496V443.996H2415.98Z" fill="#11C498"/>
<path d="M2767.51 443.996V363.496H2756.01V273.996C2756.01 258.329 2752.18 246.663 2744.51 238.996C2736.85 231.329 2725.01 227.496 2709.01 227.496C2700.68 227.496 2690.68 227.663 2679.01 227.996C2667.35 228.329 2655.51 228.829 2643.51 229.496C2631.85 229.829 2621.35 230.329 2612.01 230.996V171.996C2619.68 171.329 2628.35 170.663 2638.01 169.996C2647.68 169.329 2657.51 168.996 2667.51 168.996C2677.85 168.663 2687.51 168.496 2696.51 168.496C2724.51 168.496 2747.68 172.163 2766.01 179.496C2784.68 186.829 2798.68 198.329 2808.01 213.996C2817.68 229.663 2822.51 250.163 2822.51 275.496V443.996H2767.51ZM2680.01 450.996C2660.35 450.996 2643.01 447.496 2628.01 440.496C2613.35 433.496 2601.85 423.496 2593.51 410.496C2585.51 397.496 2581.51 381.829 2581.51 363.496C2581.51 343.496 2586.35 327.163 2596.01 314.496C2606.01 301.829 2619.85 292.329 2637.51 285.996C2655.51 279.663 2676.51 276.496 2700.51 276.496H2763.51V317.996H2699.51C2683.51 317.996 2671.18 321.996 2662.51 329.996C2654.18 337.663 2650.01 347.663 2650.01 359.996C2650.01 372.329 2654.18 382.329 2662.51 389.996C2671.18 397.663 2683.51 401.496 2699.51 401.496C2709.18 401.496 2718.01 399.829 2726.01 396.496C2734.35 392.829 2741.18 386.829 2746.51 378.496C2752.18 369.829 2755.35 358.163 2756.01 343.496L2773.01 362.996C2771.35 381.996 2766.68 397.996 2759.01 410.996C2751.68 423.996 2741.35 433.996 2728.01 440.996C2715.01 447.663 2699.01 450.996 2680.01 450.996Z" fill="#11C498"/>
<path d="M2997.46 453.496C2973.79 453.496 2953.29 449.496 2935.96 441.496C2918.96 433.496 2904.63 422.829 2892.96 409.496C2881.63 396.163 2873.13 381.163 2867.46 364.496C2861.79 347.829 2858.96 330.829 2858.96 313.496V303.996C2858.96 285.663 2861.79 268.163 2867.46 251.496C2873.46 234.496 2882.29 219.496 2893.96 206.496C2905.63 193.163 2919.96 182.663 2936.96 174.996C2954.29 166.996 2974.29 162.996 2996.96 162.996C3020.63 162.996 3041.79 167.663 3060.46 176.996C3079.13 185.996 3093.96 198.663 3104.96 214.996C3116.29 231.329 3122.63 250.329 3123.96 271.996H3056.46C3054.79 257.996 3048.79 246.329 3038.46 236.996C3028.46 227.663 3014.63 222.996 2996.96 222.996C2981.63 222.996 2968.79 226.663 2958.46 233.996C2948.46 241.329 2940.96 251.496 2935.96 264.496C2930.96 277.163 2928.46 291.829 2928.46 308.496C2928.46 324.496 2930.79 338.996 2935.46 351.996C2940.46 364.996 2947.96 375.163 2957.96 382.496C2968.29 389.829 2981.46 393.496 2997.46 393.496C3009.46 393.496 3019.79 391.329 3028.46 386.996C3037.13 382.663 3043.96 376.663 3048.96 368.996C3054.29 361.329 3057.63 352.663 3058.96 342.996H3126.46C3125.13 364.996 3118.63 384.329 3106.96 400.996C3095.63 417.329 3080.46 430.163 3061.46 439.496C3042.79 448.829 3021.46 453.496 2997.46 453.496Z" fill="#11C498"/>
<path d="M3352.13 443.996L3261.13 316.996H3220.63L3336.13 172.496H3408.63L3302.13 305.996L3303.63 270.996L3430.63 443.996H3352.13ZM3162.13 443.996V78.9961H3231.63V443.996H3162.13Z" fill="#11C498"/>
<path d="M3563.44 453.496C3540.11 453.496 3519.61 449.496 3501.94 441.496C3484.61 433.496 3470.11 422.829 3458.44 409.496C3447.11 395.829 3438.44 380.663 3432.44 363.996C3426.77 347.329 3423.94 330.329 3423.94 312.996V303.496C3423.94 285.496 3426.77 268.163 3432.44 251.496C3438.44 234.496 3447.11 219.496 3458.44 206.496C3470.11 193.163 3484.44 182.663 3501.44 174.996C3518.44 166.996 3538.11 162.996 3560.44 162.996C3589.77 162.996 3614.27 169.496 3633.94 182.496C3653.94 195.163 3668.94 211.996 3678.94 232.996C3688.94 253.663 3693.94 275.996 3693.94 299.996V324.996H3453.44V282.496H3650.44L3628.94 303.496C3628.94 286.163 3626.44 271.329 3621.44 258.996C3616.44 246.663 3608.77 237.163 3598.44 230.496C3588.44 223.829 3575.77 220.496 3560.44 220.496C3545.11 220.496 3532.11 223.996 3521.44 230.996C3510.77 237.996 3502.61 248.163 3496.94 261.496C3491.61 274.496 3488.94 290.163 3488.94 308.496C3488.94 325.496 3491.61 340.663 3496.94 353.996C3502.27 366.996 3510.44 377.329 3521.44 384.996C3532.44 392.329 3546.44 395.996 3563.44 395.996C3580.44 395.996 3594.27 392.663 3604.94 385.996C3615.61 378.996 3622.44 370.496 3625.44 360.496H3689.44C3685.44 379.163 3677.77 395.496 3666.44 409.496C3655.11 423.496 3640.61 434.329 3622.94 441.996C3605.61 449.663 3585.77 453.496 3563.44 453.496Z" fill="#11C498"/>
<path d="M3732 443.996V172.496H3787V287.496H3785.5C3785.5 248.496 3793.83 218.996 3810.5 198.996C3827.16 178.996 3851.66 168.996 3884 168.996H3894V229.496H3875C3851.66 229.496 3833.5 235.829 3820.5 248.496C3807.83 260.829 3801.5 278.829 3801.5 302.496V443.996H3732Z" fill="#11C498"/>
<path d="M278.171 99.2016V258.3L362.717 175.572L446.355 91.9303C372.365 69.5888 303.25 86.0048 278.171 99.2016Z" fill="#11C498"/>
<path d="M292.727 93.1851C291.818 93.1851 284.546 95.9124 278.182 99.2063V189.095C278.182 189.095 293.637 93.1851 292.727 93.1851Z" fill="#2F2F2F" fill-opacity="0.12"/>
<path d="M258.18 221.821L165.452 127.274C192.989 51.6909 253.003 10.7898 278.18 0V221.821H258.18Z" fill="#007A9F"/>
<path d="M171.953 112.901C171.31 113.544 168.096 120.615 165.925 127.444L229.486 191.006C229.486 191.006 172.596 112.259 171.953 112.901Z" fill="#2F2F2F" fill-opacity="0.12"/>
<path d="M99.0748 221.83H258.173L175.445 137.283L91.8034 53.6457C69.4619 127.635 85.878 196.75 99.0748 221.83Z" fill="#11C498"/>
<path d="M92.7168 207.323C92.7168 208.232 95.4441 215.505 98.7381 221.868H188.627C188.627 221.868 92.7168 206.414 92.7168 207.323Z" fill="#2F2F2F" fill-opacity="0.12"/>
<path d="M221.821 241.831L127.274 334.56C51.6909 307.022 10.7898 247.009 0 221.831H221.821V241.831Z" fill="#007A9F"/>
<path d="M112.76 328.768C113.403 329.411 120.474 332.625 127.303 334.796L190.864 271.235C190.864 271.235 112.117 328.125 112.76 328.768Z" fill="#2F2F2F" fill-opacity="0.12"/>
<path d="M278.173 258.299L372.719 165.571C448.303 193.109 489.204 253.122 499.994 278.299H278.173V258.299Z" fill="#007A9F"/>
<path d="M387.188 171.197C386.545 170.554 379.474 167.339 372.645 165.169L309.084 228.73C309.084 228.73 387.83 171.839 387.188 171.197Z" fill="#2F2F2F" fill-opacity="0.12"/>
<path d="M400.922 278.184H241.824L324.552 362.731L408.193 446.368C430.535 372.379 414.119 303.264 400.922 278.184Z" fill="#11C498"/>
<path d="M406.822 292.73C406.822 291.82 404.095 284.548 400.801 278.184H310.912C310.912 278.184 406.822 293.639 406.822 292.73Z" fill="#2F2F2F" fill-opacity="0.12"/>
<path d="M221.821 400.922V241.824L137.274 324.552L53.6366 408.194C127.626 430.535 196.741 414.119 221.821 400.922Z" fill="#11C498"/>
<path d="M207.31 406.826C208.219 406.826 215.492 404.099 221.855 400.805V310.916C221.855 310.916 206.401 406.826 207.31 406.826Z" fill="#2F2F2F" fill-opacity="0.12"/>
<path d="M241.821 278.186L334.549 372.733C307.011 448.316 246.998 489.217 221.82 500.007V278.186H241.821Z" fill="#007A9F"/>
<path d="M328.757 387.203C329.4 386.56 332.614 379.489 334.785 372.66L271.224 309.099C271.224 309.099 328.114 387.846 328.757 387.203Z" fill="#2F2F2F" fill-opacity="0.12"/>
</svg>
